<mxfile host="app.diagrams.net" modified="2024-04-22T10:29:22.953Z" agent="Mozilla/5.0 (Windows NT 10.0; Win64; x64) AppleWebKit/537.36 (KHTML, like Gecko) Chrome/123.0.0.0 Safari/537.36" version="24.2.7" etag="nTus5OpLu3JLGJonWLof" type="github">
  <diagram name="Page-1" id="w__qGZcvUZ2RjeRVVbhv">
    <mxGraphModel>
      <root>
        <mxCell id="0" />
        <mxCell id="1" parent="0" />
      </root>
    </mxGraphModel>
  </diagram>
</mxfile>
